<svg version="1.1" id="Capa_1" xmlns="http://www.w3.org/2000/svg" xmlns:xlink="http://www.w3.org/1999/xlink" x="0px" y="0px" width="46.25px" height="27.256px" viewBox="-7.25 2.372 46.25 27.256" enable-background="new -7.25 2.372 46.25 27.256" xml:space="preserve">
<g>
	<g>
		<path fill="#000" d="M21.188,2.799c1.283,0.182,2.541,0.504,3.784,0.886c2.168,0.668,4.215,1.595,6.14,2.799
			c0.133,0.083,0.313,0.136,0.47,0.136c2.261,0.009,4.521,0.006,6.779,0.008c0.183,0,0.363,0.019,0.545,0.03
			c0,0.044,0.007,0.063-0.002,0.073c-0.104,0.163-0.211,0.323-0.317,0.484c-0.767,1.176-1.422,2.407-1.81,3.766
			c-0.04,0.146-0.05,0.269,0.05,0.412c2.012,2.889,2.652,6.062,1.813,9.481c-0.738,3-2.457,5.339-5.07,6.994
			c-1.867,1.185-3.93,1.749-6.134,1.76c-0.925,0.006-1.847-0.118-2.751-0.354c-2.204-0.571-4.093-1.671-5.65-3.333
			c-0.205-0.219-0.398-0.446-0.618-0.693c-0.822,1.228-1.632,2.433-2.462,3.673c-0.826-1.235-1.625-2.432-2.422-3.622
			c-0.055,0.029-0.071,0.033-0.082,0.042c-0.018,0.016-0.034,0.034-0.048,0.051c-1.883,2.224-4.252,3.588-7.138,4.043
			c-1.606,0.255-3.196,0.163-4.755-0.267c-2.21-0.606-4.088-1.771-5.605-3.493c-1.482-1.682-2.405-3.634-2.751-5.854
			c-0.396-2.072,0.086-4.071,0.207-4.556c0.35-1.409,0.958-2.704,1.793-3.894c0.059-0.084,0.08-0.234,0.051-0.334
			c-0.34-1.25-0.928-2.386-1.615-3.475C-6.585,7.287-6.794,7.03-6.987,6.764c0-0.03,0-0.061,0-0.092
			c0.039,0.004,0.077,0.012,0.115,0.012c2.313,0,4.625,0.002,6.938-0.003c0.101,0,0.213-0.042,0.298-0.097
			C1.989,5.542,3.721,4.716,5.54,4.073C6.852,3.61,8.191,3.25,9.557,2.985c1.322-0.256,2.653-0.436,3.996-0.525
			C16.828,2.208,19.447,2.554,21.188,2.799z M18.288,18.075c0,5.078,4.122,9.227,9.183,9.207c5.08-0.019,9.182-4.05,9.18-9.185
			c-0.005-5.292-4.298-9.271-9.377-9.167C22.26,9.034,18.335,13.076,18.288,18.075z M4.517,8.896
			c-4.941-0.043-9.249,4.08-9.162,9.332c0.08,4.898,4.117,9.051,9.264,9.006c5.033-0.042,9.078-4.152,9.088-9.131
			C13.715,12.991,9.62,8.896,4.517,8.896z M4.973,6.499c2.791,0.17,5.242,1.143,7.313,3.027c2.067,1.879,3.278,4.225,3.718,6.982
			c0.453-2.725,1.632-5.048,3.661-6.909c2.031-1.863,4.45-2.84,7.195-3.048c-3.258-1.448-6.693-2.063-10.228-2.131
			C12.613,4.341,8.705,4.933,4.973,6.499z"></path>
		<path fill="#000" d="M27.452,12.28c3.144-0.005,5.688,2.527,5.688,5.666c0,3.153-2.502,5.59-5.454,5.702
			c-3.298,0.127-5.937-2.501-5.934-5.688C21.756,14.738,24.411,12.227,27.452,12.28z M31.159,17.96
			c-0.001-2.048-1.657-3.713-3.693-3.713c-2.058,0-3.732,1.657-3.74,3.699c-0.008,2.034,1.676,3.726,3.716,3.731
			C29.482,21.686,31.161,20.007,31.159,17.96z"></path>
		<path fill="#000" d="M4.396,12.28c3.141-0.003,5.69,2.533,5.683,5.673c-0.008,3.177-2.514,5.56-5.414,5.692
			c-3.31,0.151-5.981-2.488-5.975-5.691C-1.305,14.708,1.371,12.225,4.396,12.28z M8.099,17.948
			c-0.006-2.062-1.673-3.705-3.754-3.701c-2.007,0.003-3.689,1.698-3.684,3.712c0.005,2.038,1.685,3.714,3.729,3.72
			C6.422,21.684,8.104,19.992,8.099,17.948z"></path>
		<path fill="#000" d="M27.455,16.074c1.042,0,1.896,0.854,1.887,1.89c-0.012,1.037-0.851,1.88-1.876,1.88
			c-1.054,0-1.901-0.834-1.9-1.867C25.568,16.905,26.391,16.076,27.455,16.074z"></path>
		<path fill="#000" d="M4.386,16.058c1.057-0.001,1.907,0.844,1.911,1.899c0.004,1.044-0.854,1.903-1.906,1.905
			c-1.078,0.001-1.909-0.83-1.908-1.914C2.483,16.885,3.313,16.059,4.386,16.058z"></path>
	</g>
</g>
</svg>